# xmcd
#
# Track frame offsets: 
#        150
#        38175
#        52955
#        74832
#        113782
#        134434
#        150323
#        180798
#        204140
#        223647
#        251813
#        268971
#        293583
#
# Disc length: 4161 seconds
#
# Revision: 2
# Processed by: cddbd v1.5.2PL0 Copyright (c) Steve Scherf et al.
# Submitted via: ExactAudioCopy v1.0b3
#
DISCID=bd103f0d
DTITLE=Carl  Tremblay - Rock' n Blues
DYEAR=2002
DGENRE=Blues
TTITLE0=Carl  Tremblay - Goodbye Kansas City
TTITLE1=Carl  Tremblay - Just a little bit
TTITLE2=Carl  Tremblay - Take a walk on the Wild side
TTITLE3=Carl  Tremblay - Medley Papa's got a brend new bag
TTITLE4=Carl  Tremblay - Born on a bayou
TTITLE5=Carl  Tremblay - Born to be wild
TTITLE6=Carl  Tremblay - Mama
TTITLE7=Carl  Tremblay - Somekind of wonderful
TTITLE8=Carl  Tremblay - Would i lie to you
TTITLE9=Carl  Tremblay - Thank You
TTITLE10=Carl  Tremblay - Brand new Cadillac
TTITLE11=Carl  Tremblay - Light my fire
TTITLE12=Carl  Tremblay - Suspicious Mind
EXTD=
EXTT0=
EXTT1=
EXTT2=
EXTT3=
EXTT4=
EXTT5=
EXTT6=
EXTT7=
EXTT8=
EXTT9=
EXTT10=
EXTT11=
EXTT12=
PLAYORDER=
